<svg id="Design" xmlns="http://www.w3.org/2000/svg" viewBox="0 0 253.52 545.7"><defs><style>.cls-1{fill:#fff;fill-rule:evenodd;}</style></defs><title>Facebook</title><path class="cls-1" d="M329.1,402.15V666a6.88,6.88,0,0,0,6.87,6.87h98a6.88,6.88,0,0,0,6.87-6.87V397.85h71a6.88,6.88,0,0,0,6.85-6.29l6.83-80.79a6.87,6.87,0,0,0-6.85-7.45H440.82V246a24.32,24.32,0,0,1,24.32-24.32h54.74a6.88,6.88,0,0,0,6.88-6.87V134a6.88,6.88,0,0,0-6.88-6.87H427.39a98.29,98.29,0,0,0-98.29,98.28v77.89h-49a6.88,6.88,0,0,0-6.87,6.87V391a6.87,6.87,0,0,0,6.87,6.87h49Z" transform="translate(-273.24 -127.15)"/></svg>