<svg id="Design" xmlns="http://www.w3.org/2000/svg" viewBox="0 0 542.07 542.07"><defs><style>.cls-1{fill:#fff;}</style></defs><title>Instagram</title><path class="cls-1" d="M542.6,228.76a31.87,31.87,0,1,0,31.87,31.87A31.87,31.87,0,0,0,542.6,228.76ZM400.92,269.63c-73.81,0-133.87,60.05-133.87,133.87s60.06,133.87,133.87,133.87S534.79,477.31,534.79,403.5,474.74,269.63,400.92,269.63Zm0,219.62a85.75,85.75,0,1,1,85.75-85.75A85.85,85.85,0,0,1,400.92,489.25ZM671,292.24A163.28,163.28,0,0,0,507.75,129H292.25A163.28,163.28,0,0,0,129,292.24V507.76A163.28,163.28,0,0,0,292.25,671h215.5A163.28,163.28,0,0,0,671,507.76ZM619.9,507.76A112.15,112.15,0,0,1,507.75,619.9H292.25A112.15,112.15,0,0,1,180.1,507.76V292.24A112.15,112.15,0,0,1,292.25,180.1h215.5A112.15,112.15,0,0,1,619.9,292.24Z" transform="translate(-128.96 -128.96)"/></svg>