<svg id="Design" xmlns="http://www.w3.org/2000/svg" viewBox="0 0 660.92 544.38"><defs><style>.cls-1{fill:#fff;}</style></defs><title>Twitter</title><path class="cls-1" d="M728,193.06c-21,9.5-44.1,15.27-66.76,19.07,10.75-1.8,26.61-21.28,32.95-29.15,9.67-12,17.71-25.71,22.23-40.49.58-1.15,1-2.6-.14-3.48a3.81,3.81,0,0,0-3.54.3,341.32,341.32,0,0,1-79.29,30.34A5.29,5.29,0,0,1,628,168.2a64.75,64.75,0,0,0-6.93-7.08,140.37,140.37,0,0,0-38.42-23.54,133.68,133.68,0,0,0-58.92-9.49,140.67,140.67,0,0,0-55.9,15.79,144.06,144.06,0,0,0-45.09,36.83,138.35,138.35,0,0,0-26.93,53.94c-4.64,19-4.26,37.76-1.43,57,.43,3.18.15,3.61-2.73,3.18C282.68,278.57,192.4,239.59,119.1,156.07c-3.18-3.62-4.91-3.62-7.51.28-32.08,48.07-16.51,125.31,23.55,163.27,5.34,5.06,10.83,10.12,16.75,14.74-2.16.44-28.82-2.45-52.58-14.74-3.18-2-4.78-.86-5.06,2.75A83,83,0,0,0,95.11,338c6.15,48.73,39.9,93.81,86.12,111.39a81.54,81.54,0,0,0,17.47,5.35c-10.53,2.3-21.37,4-51.57,1.59-3.76-.72-5.2,1.16-3.76,4.77,22.69,61.85,71.68,80.25,108.36,90.74,4.91.86,9.82.86,14.75,2-.3.44-.59.44-.87.87-12.17,18.55-54.36,32.36-74,39.22C155.88,606.41,117,612,79.21,608.31c-6-.89-7.31-.83-8.95,0-1.65,1-.21,2.46,1.73,4,7.67,5,15.47,9.54,23.41,13.87a371.05,371.05,0,0,0,75.13,30c135,37.29,287.1,9.89,388.48-90.83,79.61-79.1,107.51-188.18,107.51-297.4,0-4.27,5.05-6.63,8.05-8.89,20.72-15.56,37.18-34.19,52.63-55a16,16,0,0,0,3.26-10.53v-.58C730.46,191.31,730.67,191.84,728,193.06Z" transform="translate(-69.54 -127.81)"/></svg>