<svg id="Design" xmlns="http://www.w3.org/2000/svg" viewBox="0 0 774.39 542.07"><defs><style>.cls-1{fill:#fff;}</style></defs><title>Youtube</title><path class="cls-1" d="M787.19,297.54A168.58,168.58,0,0,0,618.62,129H181.38A168.58,168.58,0,0,0,12.81,297.54V502.46A168.58,168.58,0,0,0,181.38,671H618.62A168.58,168.58,0,0,0,787.19,502.46ZM511.33,410.32,337,506c-7.58,4.1-14.4-1.38-14.4-10V299.65c0-8.73,7-14.21,14.62-9.89L512.75,390.43C520.5,394.85,519.18,406.08,511.33,410.32Z" transform="translate(-12.81 -128.96)"/></svg>